<svg xmlns="http://www.w3.org/2000/svg" version="1.1" xmlns:xlink="http://www.w3.org/1999/xlink" xmlns:svgjs="http://svgjs.dev/svgjs" width="2000" height="1247" viewBox="0 0 2000 1247"><g transform="matrix(1,0,0,1,-1.2121212121212466,0.504858299595071)"><svg viewBox="0 0 396 247" data-background-color="#ffffff" preserveAspectRatio="xMidYMid meet" height="1247" width="2000" xmlns="http://www.w3.org/2000/svg" xmlns:xlink="http://www.w3.org/1999/xlink"><g id="tight-bounds" transform="matrix(1,0,0,1,0.2400000000000091,-0.09999999999999432)"><svg viewBox="0 0 395.52 247.2" height="247.2" width="395.52"><g><svg></svg></g><g><svg viewBox="0 0 395.52 247.2" height="247.2" width="395.52"><g transform="matrix(1,0,0,1,75.54432,101.89315001876173)"><svg viewBox="0 0 244.43135999999998 43.41369996247654" height="43.41369996247654" width="244.43135999999998"><g><svg viewBox="0 0 244.43135999999998 43.41369996247654" height="43.41369996247654" width="244.43135999999998"><g><svg viewBox="0 0 244.43135999999998 43.41369996247654" height="43.41369996247654" width="244.43135999999998"><g id="textblocktransform"><svg viewBox="0 0 244.43135999999998 43.41369996247654" height="43.41369996247654" width="244.43135999999998" id="textblock"><g><svg viewBox="0 0 244.43135999999998 43.41369996247654" height="43.41369996247654" width="244.43135999999998"><g transform="matrix(1,0,0,1,0,0)"><svg width="244.43135999999998" viewBox="2.700000047683716 -43.650001525878906 319.7799987792969 56.80000305175781" height="43.41369996247654" data-palette-color="#ed2647"><path d="M27.7-21.15Q31.55-20.1 33.83-17.48 36.1-14.85 36.1-11.45L36.1-11.45Q36.1-8.3 33.63-5.53 31.15-2.75 27.43-1.1 23.7 0.55 20.35 0.55L20.35 0.55Q17.85 0.55 15.45 0.3L15.45 0.3Q11.45 0.05 9.25 0.05L9.25 0.05 3.15 0.05 3.15-1.25 7.85-4.95 7.85-35.8 2.7-37.55 3.55-39.3 9.2-39.3Q13.75-39.3 18.15-39.6L18.15-39.6Q21.55-39.8 23.15-39.8L23.15-39.8Q26.4-39.8 28.9-38.5 31.4-37.2 32.75-34.98 34.1-32.75 34.1-30L34.1-30Q34.1-27.5 32.33-25.2 30.55-22.9 27.75-21.25L27.75-21.25 27.7-21.15ZM27.9-27.6Q27.9-31.6 25.73-34.18 23.55-36.75 19.25-36.75L19.25-36.75Q16-36.75 13.45-34.75L13.45-34.75 13.45-21.5 20.95-21.5Q24.2-21.5 26.03-23.1 27.85-24.7 27.85-27.6L27.85-27.6 27.9-27.6ZM21.7-2.85Q25.4-2.85 27.63-4.73 29.85-6.6 29.85-9.7L29.85-9.7Q29.85-13.7 27.5-16.15 25.15-18.6 20.5-18.75L20.5-18.75Q20.15-18.7 19.55-18.7L19.55-18.7 13.45-18.7 13.45-4.2Q16.85-2.85 21.75-2.85L21.75-2.85 21.7-2.85ZM72.75-1.7L71.85 0.05 62.75 0.05 62.75-17Q62.75-19.85 61.85-20.95 60.95-22.05 58.7-22.05L58.7-22.05Q56.95-22.05 55.27-21.43 53.6-20.8 51.25-18.9L51.25-18.9 51.25-3.5 55.75-1.7 54.85 0.05 41.3 0.05 41.3-1.25 45.75-4.7 45.75-36.15 41.3-39.3 41.3-40.6 49.6-43.65 51.25-43.65 51.25-21 58.35-26.6Q59.4-27 61-27L61-27Q64.35-27 66.3-24.93 68.25-22.85 68.25-19.3L68.25-19.3 68.25-3.55 72.75-1.7ZM103.35-1.75L102.45 0 93.35 0 93.35-4.35 87.7 0.1Q86.7 0.5 85.2 0.5L85.2 0.5Q81 0.5 79.12-1.6 77.25-3.7 77.25-6.65L77.25-6.65Q77.25-8.45 78.55-10.18 79.85-11.9 82.3-13.45L82.3-13.45 93.35-13.45 93.35-17.1Q93.35-20.45 91.57-21.8 89.8-23.15 86.7-23.15L86.7-23.15Q83.65-23.15 79.4-19.2L79.4-19.2 77.9-20.9 85.15-26.65Q87.1-27 89.75-27L89.75-27Q94.05-27 96.45-24.83 98.85-22.65 98.85-18.55L98.85-18.55 98.85-3.5 103.35-1.75ZM86.6-3.25Q89.75-3.25 93.35-6.2L93.35-6.2 93.35-11.65 84.35-11.65Q83.6-10.8 83.32-9.95 83.05-9.1 83.05-8.05L83.05-8.05Q83.05-6.1 84.02-4.67 85-3.25 86.6-3.25L86.6-3.25ZM133.44-26.5L133.44-25.2 120.84 0 117.54 0 109.59-19.3 105.04-21.95 105.04-23.25 113.09-27.45 114.99-19.9 121.19-4.65 128.49-19.9 121.94-24.75 122.79-26.5 133.44-26.5ZM164.04-26.55L164.04-25.25 151.44-0.05 141.29 13.15 139.64 11.85Q142.54 8.8 144.04 6.5 145.54 4.2 146.14 1.85 146.74-0.5 146.69-3.75L146.69-3.75 140.29-19.3 135.74-21.95 135.74-23.25 143.79-27.45 145.69-19.9 151.89-4.65 159.19-19.9 152.64-24.75 153.49-26.5 164.04-26.55ZM194.39-1.75L193.49 0 184.39 0 184.39-4.35 178.74 0.1Q177.74 0.5 176.24 0.5L176.24 0.5Q172.04 0.5 170.16-1.6 168.29-3.7 168.29-6.65L168.29-6.65Q168.29-8.45 169.59-10.18 170.89-11.9 173.34-13.45L173.34-13.45 184.39-13.45 184.39-17.1Q184.39-20.45 182.61-21.8 180.84-23.15 177.74-23.15L177.74-23.15Q174.69-23.15 170.44-19.2L170.44-19.2 168.94-20.9 176.19-26.65Q178.14-27 180.79-27L180.79-27Q185.09-27 187.49-24.83 189.89-22.65 189.89-18.55L189.89-18.55 189.89-3.5 194.39-1.75ZM177.64-3.25Q180.79-3.25 184.39-6.2L184.39-6.2 184.39-11.65 175.39-11.65Q174.64-10.8 174.36-9.95 174.09-9.1 174.09-8.05L174.09-8.05Q174.09-6.1 175.06-4.67 176.04-3.25 177.64-3.25L177.64-3.25ZM235.43-9Q235.43-10.55 234.18-11.93 232.93-13.3 231.08-14.38 229.23-15.45 225.93-17.15L225.93-17.15Q222.08-19.1 219.76-20.5 217.43-21.9 215.81-23.83 214.18-25.75 214.18-28.1L214.18-28.1Q214.18-30.6 216.23-33.48 218.28-36.35 221.26-38.33 224.23-40.3 226.73-40.3L226.73-40.3Q229.78-40.3 233.81-39.55 237.83-38.8 239.68-37.95L239.68-37.95 239.68-28.5 238.33-28.5Q235.83-32.6 232.83-34.83 229.83-37.05 226.53-37.05L226.53-37.05Q223.48-37.05 221.73-35.18 219.98-33.3 219.98-30.3L219.98-30.3Q219.98-28.65 221.28-27.23 222.58-25.8 224.51-24.65 226.43-23.5 229.73-21.85L229.73-21.85Q233.48-19.95 235.76-18.57 238.03-17.2 239.61-15.33 241.18-13.45 241.18-11.15L241.18-11.15Q241.18-8.65 238.98-5.78 236.78-2.9 233.61-0.93 230.43 1.05 227.83 1.05L227.83 1.05Q224.63 1.05 220.23 0.3 215.83-0.45 213.93-1.3L213.93-1.3 213.93-10.75 215.28-10.75Q217.93-6.65 221.26-4.42 224.58-2.2 228.08-2.2L228.08-2.2Q230.28-2.2 231.96-3.15 233.63-4.1 234.53-5.68 235.43-7.25 235.43-9L235.43-9ZM277.73-1.75L276.88 0 267.73 0 267.73-5.4 261.23 0.1Q260.18 0.5 258.53 0.5L258.53 0.5Q255.18 0.5 253.26-1.58 251.33-3.65 251.33-7.2L251.33-7.2 251.33-19.4 246.88-22 246.88-23.3 255.18-27.5 256.83-27.5 256.83-9.45Q256.83-6.6 257.71-5.5 258.58-4.4 260.83-4.4L260.83-4.4Q262.43-4.4 264.01-5.03 265.58-5.65 267.73-7.5L267.73-7.5 267.73-19.4 263.28-22 263.28-23.3 271.58-27.5 273.23-27.5 273.23-3.55 277.73-1.75ZM300.33-26.95Q301.73-26.95 302.88-26.1 304.03-25.25 304.73-23.75L304.73-23.75 301.68-19.95 300.03-19.95Q299.83-21.05 299.3-21.55 298.78-22.05 297.88-22.05L297.88-22.05Q296.68-22.05 295.43-21.45 294.18-20.85 292.53-19.05L292.53-19.05 292.53-3.85 299.38-1.7 298.53 0.05 282.58 0.05 282.58-1.25 287.03-4.7 287.03-19.4 282.58-21.95 282.58-23.25 290.73-27.45 292.23-21.15 297.53-26.6Q298.63-27 300.38-27L300.38-27 300.33-26.95ZM322.48-1.75L321.58 0 308.03 0 308.03-1.3 312.48-4.75 312.48-19.95 308.03-23.1 308.03-24.4 316.33-27.45 317.98-27.45 317.98-3.55 322.48-1.75ZM314.98-42.4Q316.38-42.4 317.25-41.35 318.13-40.3 318.13-38.75L318.13-38.75Q318.13-37.65 317.5-36.68 316.88-35.7 315.9-35.13 314.93-34.55 314.03-34.55L314.03-34.55Q312.68-34.55 311.78-35.63 310.88-36.7 310.88-38.25L310.88-38.25Q310.88-39.35 311.5-40.3 312.13-41.25 313.1-41.83 314.08-42.4 314.98-42.4L314.98-42.4Z" opacity="1" transform="matrix(1,0,0,1,0,0)" fill="#ed2647" class="wordmark-text-0" data-fill-palette-color="primary" id="text-0"></path></svg></g></svg></g></svg></g></svg></g></svg></g></svg></g><path d="M186.187 95.893L186.187 34.179 7.345 34.179 7.345 213.021 186.187 213.021 186.187 151.307 182.271 151.307 182.271 209.106 11.26 209.106 11.26 38.094 182.271 38.094 182.271 95.893Z" fill="#ed2647" stroke="transparent" data-fill-palette-color="primary"></path></svg></g><defs></defs></svg><rect width="395.52" height="247.2" fill="none" stroke="none" visibility="hidden"></rect></g></svg></g></svg>